<svg width="512" height="512" viewBox="0 0 512 512" fill="none" xmlns="http://www.w3.org/2000/svg">
<path d="M502.519 256C502.519 392.145 392.145 502.519 256 502.519C119.855 502.519 9.48148 392.145 9.48148 256C9.48148 119.855 119.855 9.48148 256 9.48148C392.145 9.48148 502.519 119.855 502.519 256Z" fill="white"/>
<path d="M256 512C114.84 512 0 397.16 0 256C0 114.84 114.84 0 256 0C397.16 0 512 114.84 512 256C512 397.16 397.16 512 256 512ZM256 18.963C125.298 18.963 18.963 125.298 18.963 256C18.963 386.702 125.298 493.037 256 493.037C386.702 493.037 493.037 386.702 493.037 256C493.037 125.298 386.702 18.963 256 18.963Z" fill="white"/>
<path d="M265.643 169.301L348.312 312.481C350.853 316.881 347.676 322.37 342.604 322.37H177.266C172.193 322.37 169.017 316.881 171.558 312.481L254.227 169.301C256.768 164.902 263.111 164.902 265.643 169.301Z" fill="#AE0505"/>
<path d="M342.604 331.852H177.266C171.454 331.852 166.248 328.856 163.337 323.812C160.436 318.786 160.427 312.775 163.337 307.74L246.007 164.551C248.917 159.526 254.113 156.511 259.935 156.511C265.756 156.511 270.952 159.516 273.863 164.551L356.532 307.74C359.443 312.775 359.433 318.786 356.532 323.812C353.621 328.856 348.416 331.852 342.604 331.852ZM182.272 312.889H337.607L259.944 178.366L182.272 312.889Z" fill="#AE0505"/>
</svg>
